<?xml version="1.0" standalone="no"?>
<!DOCTYPE svg PUBLIC "-//W3C//DTD SVG 20010904//EN"
 "http://www.w3.org/TR/2001/REC-SVG-20010904/DTD/svg10.dtd">
<svg version="1.0" xmlns="http://www.w3.org/2000/svg"
 width="512.000000pt" height="512.000000pt" viewBox="0 0 512.000000 512.000000"
 preserveAspectRatio="xMidYMid meet">

<g transform="translate(0.000000,512.000000) scale(0.100000,-0.100000)"
fill="#e2cfae" stroke="none">
<path d="M2495 3186 c-16 -8 -222 -207 -457 -442 -462 -464 -450 -450 -433
-541 9 -49 69 -109 118 -118 90 -17 83 -23 475 368 l362 362 363 -362 c391
-391 384 -385 474 -368 49 9 109 69 118 118 17 91 29 77 -433 541 -242 242
-441 434 -459 442 -40 17 -89 17 -128 0z"/>
</g>
</svg>
