<?xml version="1.0" standalone="no"?>
<!DOCTYPE svg PUBLIC "-//W3C//DTD SVG 20010904//EN"
 "http://www.w3.org/TR/2001/REC-SVG-20010904/DTD/svg10.dtd">
<svg version="1.0" xmlns="http://www.w3.org/2000/svg"
 width="512.000000pt" height="512.000000pt" viewBox="0 0 512.000000 512.000000"
 preserveAspectRatio="xMidYMid meet">

<g transform="translate(0.000000,512.000000) scale(0.100000,-0.100000)"
fill="#e9d5b4" stroke="none">
<path d="M1704 5106 c-57 -18 -102 -54 -132 -106 -26 -43 -27 -52 -30 -217
l-4 -173 -639 0 -639 0 0 -255 0 -255 2300 0 2300 0 0 255 0 255 -639 0 -639
0 -4 173 c-3 166 -4 174 -30 218 -30 51 -84 92 -143 108 -62 17 -1647 14
-1701 -3z"/>
<path d="M514 3538 c3 -24 56 -779 117 -1678 69 -1023 116 -1654 124 -1685 18
-66 79 -128 152 -155 54 -20 67 -20 1656 -18 l1602 3 51 27 c57 30 108 85 124
133 5 16 66 770 134 1675 69 905 128 1666 131 1693 l6 47 -2051 0 -2051 0 5
-42z m1142 -491 c40 -21 89 -70 112 -111 16 -29 17 -112 20 -1126 3 -1219 7
-1141 -65 -1221 -90 -99 -286 -99 -376 0 -71 79 -68 15 -65 1222 l3 1084 22
41 c29 55 78 100 127 119 53 19 179 15 222 -8z m1034 -8 c66 -36 106 -95 119
-176 9 -49 11 -366 9 -1114 l-3 -1045 -30 -60 c-67 -130 -233 -171 -367 -90
-42 25 -59 43 -83 90 l-30 60 -3 1045 c-2 741 0 1066 8 1113 24 140 118 212
266 205 51 -3 83 -10 114 -28z m992 16 c52 -18 100 -62 131 -119 l22 -41 3
-1084 c2 -984 1 -1089 -14 -1134 -34 -103 -122 -162 -239 -161 -112 0 -188 46
-231 139 l-24 50 0 1080 c0 678 4 1093 10 1115 19 67 80 132 149 156 49 18
138 17 193 -1z"/>
</g>
</svg>
