<?xml version="1.0" standalone="no"?>
<!DOCTYPE svg PUBLIC "-//W3C//DTD SVG 20010904//EN"
 "http://www.w3.org/TR/2001/REC-SVG-20010904/DTD/svg10.dtd">
<svg version="1.0" xmlns="http://www.w3.org/2000/svg"
 width="512.000000pt" height="512.000000pt" viewBox="0 0 512.000000 512.000000"
 preserveAspectRatio="xMidYMid meet">

<g transform="translate(0.000000,512.000000) scale(0.100000,-0.100000)"
fill="#e2cfae" stroke="none">
<path d="M2025 4671 c-56 -27 -1068 -1042 -1090 -1093 -20 -50 -19 -114 4
-163 21 -46 1025 -1076 1080 -1109 43 -25 142 -27 186 -4 101 54 147 187 97
284 -11 22 -161 185 -334 364 l-315 325 789 3 c887 2 857 5 1002 -70 108 -57
197 -146 253 -253 72 -140 67 -49 73 -1260 l5 -1100 28 -57 c23 -48 36 -61 79
-82 89 -45 206 -29 265 35 55 61 53 8 53 1178 0 1167 1 1140 -54 1305 -106
315 -367 576 -682 682 -162 54 -163 54 -1022 54 l-796 0 326 328 c355 357 354
355 346 462 -10 142 -163 232 -293 171z"/>
</g>
</svg>
