<?xml version="1.0" standalone="no"?>
<!DOCTYPE svg PUBLIC "-//W3C//DTD SVG 20010904//EN"
 "http://www.w3.org/TR/2001/REC-SVG-20010904/DTD/svg10.dtd">
<svg version="1.0" xmlns="http://www.w3.org/2000/svg"
 width="512.000000pt" height="512.000000pt" viewBox="0 0 512.000000 512.000000"
 preserveAspectRatio="xMidYMid meet">

<g transform="translate(0.000000,512.000000) scale(0.100000,-0.100000)"
fill="#e2cfae" stroke="none">
<path d="M393 4972 c-102 -36 -184 -111 -232 -212 -22 -47 -26 -68 -26 -145 0
-79 4 -97 29 -145 22 -45 204 -231 954 -982 l927 -928 -927 -927 c-750 -752
-932 -938 -954 -983 -25 -48 -29 -66 -29 -145 0 -77 4 -98 27 -148 35 -74 121
-160 195 -195 50 -23 71 -27 148 -27 79 0 97 4 145 29 45 22 231 204 982 954
l928 927 928 -927 c751 -750 937 -932 982 -954 48 -25 66 -29 145 -29 77 0 98
4 148 27 74 35 160 121 195 195 23 50 27 71 27 148 0 79 -4 97 -29 145 -22 45
-204 231 -954 983 l-927 927 927 928 c750 751 932 937 954 982 25 48 29 66 29
145 0 77 -4 98 -27 148 -35 74 -121 160 -195 195 -50 23 -71 27 -148 27 -79 0
-97 -4 -145 -29 -45 -22 -231 -204 -983 -954 l-927 -927 -928 927 c-765 764
-937 931 -982 954 -73 36 -181 43 -257 16z"/>
</g>
</svg>
